<svg version="1" xmlns="http://www.w3.org/2000/svg" width="933.333" height="933.333" viewBox="0 0 700.000000 700.000000"><path d="M260.5 109.4c-38.2 7.3-74.2 26.4-94.6 50.1-7.9 9.1-14.3 19-26.9 41-31.9 55.9-44.8 94.1-41 121.6 1.7 12.8 4.4 22 9.1 31.1 6.4 12.3 12.4 16.9 26.9 20.8 5.6 1.5 16.2 11.9 24 23.7 6.8 10.2 8.8 11.3 20.7 11.3 4.8 0 9.4.4 10.2.9.7.5 1.7 3.2 2.2 6.1.4 2.9 2.8 9.5 5.2 14.8 2.5 5.4 8.1 17.7 12.6 27.5 14.1 31 19.4 37.1 33.8 38.4 8.7.8 12.2 3.7 13.3 10.9.5 2.9.4 5.7-.2 6.9-.6 1.1-5.9 6.9-11.7 13-14.6 15-17.4 19-28.9 41.5-11.6 22.6-16.4 34.9-18.8 48.1-1.5 8.3-1.6 11-.5 23 1.4 16.2 4 29.5 7.2 36.9 1.3 2.9 4.9 8.9 8.1 13.2l5.8 7.8h134.3l-2-2.3c-19.6-21.9-24.6-29.1-24.6-35.1 0-3.9 1.2-6.3 10.6-20.7 14.6-22.6 15.4-23.7 20-27 6.9-5 10.7-4.3 30.3 5.3 26.8 13.1 27.6 14.3 27.9 39.3l.1 17 4 11.5 4.1 11.5 55.9.3c45.7.2 58.1-.1 67.9-1.3 65.5-8.4 121.6-54.1 142.4-116 2.2-6.6 5.3-17.6 6.8-24.5l2.7-12.5.3-164.3c.2-90.3 0-164.2-.4-164.2s-2.6.5-4.9 1c-2.3.5-10.8 2.1-19 3.5-25.4 4.3-30.1 4-95.6-6-9.2-1.4-25.5-3.6-36.1-4.9-20.7-2.6-33.3-5.5-49.8-11.2-12.6-4.3-34.6-13.4-48.9-20.2-25.7-12.1-33.2-15.9-61.5-30.7-40.3-21-60.8-30.9-71.8-34.7-8.6-3-10.2-3.2-25.7-3.4-10.8-.2-18.9.1-23.5 1zm202.2 374.2c3.5.5 5.3 2.8 5.3 6.7 0 6.9-19 34.7-37.5 55.1l-7 7.7-10.5-6.9c-9.4-6.2-22.1-17.7-22-19.9.1-2.3 4.1-6.7 21.3-23.3 11.8-11.5 20-18.7 22.1-19.4 3.2-1.1 21.4-1.1 28.3 0z"/></svg>